<?xml version="1.0" encoding="UTF-8"?>
<svg height="128px" viewBox="0 0 128 128" width="128px" xmlns="http://www.w3.org/2000/svg" xmlns:xlink="http://www.w3.org/1999/xlink">
    <linearGradient id="a" gradientUnits="userSpaceOnUse" x1="8" x2="96" y1="68" y2="68">
        <stop offset="0" stop-color="#613583"/>
        <stop offset="0.0301431" stop-color="#c061cb"/>
        <stop offset="0.0656655" stop-color="#613583"/>
        <stop offset="1" stop-color="#613583"/>
    </linearGradient>
    <linearGradient id="b" gradientUnits="userSpaceOnUse" x1="32" x2="120" y1="98" y2="98">
        <stop offset="0" stop-color="#f17635"/>
        <stop offset="0.0250539" stop-color="#c64600"/>
        <stop offset="0.353787" stop-color="#b61c29"/>
        <stop offset="0.399959" stop-color="#f06037"/>
        <stop offset="0.433097" stop-color="#7e1622"/>
        <stop offset="0.938897" stop-color="#e01b24"/>
        <stop offset="0.973742" stop-color="#ee443a"/>
        <stop offset="1" stop-color="#a51d2d"/>
    </linearGradient>
    <linearGradient id="c" gradientUnits="userSpaceOnUse" x1="88" x2="88" y1="57.473679" y2="112">
        <stop offset="0" stop-color="#c061cb"/>
        <stop offset="0.428571" stop-color="#ed333b"/>
        <stop offset="1" stop-color="#ff7800"/>
    </linearGradient>
    <linearGradient id="d" gradientUnits="userSpaceOnUse" x1="48" x2="64" y1="32" y2="60.541992">
        <stop offset="0" stop-color="#3584e4"/>
        <stop offset="1" stop-color="#1a5fb4"/>
    </linearGradient>
    <path d="m 16 72 h 74.875 c 2.210938 0 4 -1.789062 4 -4 v -10.0625 l -36.871094 -9.9375 c -0.003906 0 -0.003906 0 -0.007812 0 l -41.996094 0.027344 c -4.417969 0.003906 -8 3.585937 -8 8.007812 v 7.964844 c 0 4.417969 3.582031 8 8 8 z m 0 0" fill="url(#a)"/>
    <path d="m 14 64 h 75.300781 c 2 0 3.820313 -1.148438 4.683594 -2.957031 c 0.859375 -1.804688 0.605469 -3.945313 -0.65625 -5.5 l -30.289063 -37.332031 c -0.753906 -0.929688 -2.019531 -1.285157 -3.148437 -0.886719 c -1.132813 0.402343 -1.890625 1.472656 -1.890625 2.675781 v 19.996094 s -0.003906 0.003906 -0.003906 0.003906 l -43.996094 0.03125 c -3.3125 0 -6 2.6875 -6 6.003906 v 11.964844 c 0 3.3125 2.6875 6 6 6 z m 0 0" fill="#dc8add"/>
    <path d="m 112.238281 71.78125 l -80.238281 -2.808594 v 3.886719 c 0 1.839844 0.511719 3.644531 1.484375 5.207031 l 29.773437 48.050782 c 0.855469 1.386718 2.53125 2.03125 4.09375 1.585937 c 1.566407 -0.445313 2.648438 -1.875 2.648438 -3.503906 v -20.394531 s 0.003906 -0.003907 0.003906 -0.003907 l 42.230469 -0.027343 c 4.289063 -0.003907 7.765625 -3.484376 7.765625 -7.773438 v -16.179688 c 0 -4.335937 -3.433594 -7.890624 -7.761719 -8.039062 z m 0 0" fill="url(#b)"/>
    <path d="m 111.222656 65.128906 l -74.617187 0.578125 c -1.613281 0.011719 -3.09375 0.898438 -3.867188 2.316407 c -0.773437 1.417968 -0.71875 3.140624 0.144531 4.503906 l 30.402344 48.078125 c 0.855469 1.351562 2.496094 1.976562 4.035156 1.53125 c 1.535157 -0.441407 2.59375 -1.84375 2.601563 -3.441407 l 0.078125 -21.878906 c 0 -0.003906 0.003906 -0.003906 0.003906 -0.003906 l 41.21875 -0.03125 c 4.847656 0 8.777344 -3.933594 8.777344 -8.78125 v -14.164062 c 0 -2.320313 -0.925781 -4.546876 -2.574219 -6.179688 c -1.648437 -1.636719 -3.882812 -2.546875 -6.203125 -2.527344 z m 0 0" fill="#f6d32d" fill-opacity="0.698039"/>
    <path d="m 112 64 h -75 c -1.804688 0 -3.464844 0.980469 -4.332031 2.5625 c -0.867188 1.582031 -0.804688 3.507812 0.164062 5.03125 l 30.324219 47.648438 c 0.886719 1.394531 2.585938 2.035156 4.167969 1.574218 c 1.585937 -0.464844 2.675781 -1.914062 2.675781 -3.566406 v -21.496094 s 0.003906 -0.003906 0.003906 -0.003906 l 41.996094 -0.027344 c 4.417969 -0.003906 8 -3.585937 8 -8.007812 v -15.714844 c 0 -4.417969 -3.582031 -8 -8 -8 z m 0 0" fill="url(#c)"/>
    <path d="m 14 62.9375 h 75.316406 c 2.09375 0 4.015625 -1.167969 4.972656 -3.03125 c 0.957032 -1.863281 0.792969 -4.105469 -0.425781 -5.808594 l -31.207031 -43.625 c -0.652344 -0.90625 -1.8125 -1.292968 -2.875 -0.949218 c -1.0625 0.339843 -1.78125 1.328124 -1.78125 2.441406 v 19.996094 c 0 0.003906 -0.003906 0.003906 -0.003906 0.003906 l -43.996094 0.03125 c -3.3125 0 -6 2.6875 -6 6.003906 v 18.9375 c 0 3.316406 2.6875 6 6 6 z m 0 0" fill="url(#d)"/>
</svg>
